<?xml version="1.0" ?><svg xmlns="http://www.w3.org/2000/svg" xmlns:xlink="http://www.w3.org/1999/xlink" version="1.1" viewBox="0 0 512 512" style="enable-background:new 0 0 512 512;" xml:space="preserve"><g id="_x31_3_x2C__laptop_x2C__computer_x2C__technology_x2C__network"><g id="XMLID_281_"><g id="XMLID_4_"><path id="XMLID_290_" d="M441,391c5.522,0,10-4.478,10-10V51c0-5.522-4.478-10-10-10H71c-5.522,0-10,4.478-10,10v330     c0,5.522,4.478,10,10,10C115.069,391,394.697,391,441,391z M126,371V241h20v130H126z M286,371V161h20v210H286z M81,61h350v310     h-25V111c0-5.522-4.478-10-10-10h-40c-5.522,0-10,4.478-10,10v260h-20V151c0-5.522-4.478-10-10-10h-40c-5.522,0-10,4.478-10,10     v220h-20V191c0-5.522-4.478-10-10-10h-40c-5.522,0-10,4.478-10,10v180h-20V231c0-5.522-4.478-10-10-10h-40     c-5.522,0-10,4.478-10,10v140H81V61z"/><path id="XMLID_286_" d="M501.52,412.054c-4.403-0.228-7.831-0.406-10.52-0.546V41c0-22.056-17.944-40-40-40H61     C38.944,1,21,18.944,21,41v370.366c-3.806,0.163-6.715,0.385-10.52,0.688C5.167,412.33,1,416.719,1,422.04V471     c0,22.056,17.944,40,40,40h430c22.056,0,40-17.944,40-40v-48.96C511,416.719,506.833,412.33,501.52,412.054z M41,41     c0-11.028,8.972-20,20-20h390c11.028,0,20,8.972,20,20v370c-17.705,0-162.868-0.004-163.481,0.008     c-4.093,0.059-7.81,2.635-9.245,6.597c-0.228,0.634,0.58-1.778-4.48,13.396h-75.588c-4.693-14.073-4.479-13.678-5.156-14.886     c-1.846-3.305-5.403-5.205-8.936-5.114C106.46,411.002,63.199,410.88,41,411.01V41z M491,471c0,11.028-8.972,20-20,20H41     c-11.028,0-20-8.972-20-20v-39.467L31.26,431h165.864l4.39,13.164c1.361,4.082,5.183,6.836,9.486,6.836h90     c4.304,0,8.125-2.754,9.486-6.836l4.39-13.164H480.74l10.26,0.533V471z"/><path id="XMLID_123_" d="M461,451c-5.512,0-10,4.489-10,10c0,5.512,4.491,10,10,10c5.511,0,10-4.492,10-10     C471,455.489,466.51,451,461,451z"/><path id="XMLID_122_" d="M421,451c-5.512,0-10,4.489-10,10c0,5.512,4.491,10,10,10c5.511,0,10-4.492,10-10     C431,455.489,426.51,451,421,451z"/><path id="XMLID_121_" d="M381,451c-5.512,0-10,4.489-10,10c0,5.512,4.491,10,10,10c5.511,0,10-4.492,10-10     C391,455.489,386.51,451,381,451z"/></g></g></g><g id="Layer_1"/></svg>